<svg width="27" height="17" viewBox="0 0 27 17" fill="none" xmlns="http://www.w3.org/2000/svg">
<g clip-path="url(#clip0_7_114)">
<path d="M26.6152 2.40797C25.6271 2.73599 24.6386 2.94084 23.6509 3.02312C24.7665 2.50654 25.5212 1.77674 25.9144 0.833781C24.8937 1.30108 23.8048 1.62079 22.6468 1.79306C21.6265 0.956691 20.3729 0.53833 18.885 0.53833C17.4613 0.53833 16.2475 0.925716 15.2429 1.70065C14.2389 2.47555 13.7369 3.41232 13.7369 4.51106C13.7369 4.8062 13.7793 5.10971 13.8644 5.42127C11.7604 5.33929 9.78675 4.93136 7.94305 4.19747C6.09945 3.46349 4.5348 2.48564 3.24914 1.2639C2.78159 1.87875 2.54774 2.54716 2.54774 3.26873C2.54774 3.94932 2.7549 4.5808 3.16953 5.163C3.58387 5.74511 4.14185 6.21655 4.84319 6.57739C4.01423 6.55275 3.23858 6.38461 2.51614 6.073V6.1222C2.51614 7.08166 2.90664 7.92403 3.68754 8.64994C4.46854 9.37578 5.45416 9.83265 6.64414 10.0213C6.19781 10.1114 5.74613 10.1565 5.28929 10.1565C4.99174 10.1565 4.66762 10.1361 4.31703 10.0954C4.6464 10.8906 5.25211 11.5443 6.13394 12.0571C7.01594 12.5695 8.01478 12.8337 9.13053 12.8505C7.26046 13.9819 5.13002 14.5476 2.73922 14.5476C2.28223 14.5476 1.86794 14.5315 1.49597 14.4986C3.88684 15.6874 6.52199 16.2819 9.40162 16.2819C11.2292 16.2819 12.9453 16.0586 14.5493 15.6116C16.1542 15.1649 17.5247 14.5662 18.6618 13.8157C19.7986 13.0655 20.7789 12.2025 21.6024 11.2267C22.4258 10.2509 23.0392 9.23214 23.4434 8.17028C23.847 7.1082 24.0489 6.04449 24.0489 4.97831C24.0489 4.74869 24.0436 4.57658 24.0328 4.46172C25.0426 3.8962 25.9032 3.21138 26.6152 2.40797Z" fill="#537B97"/>
</g>
<defs>
<clipPath id="clip0_7_114">
<rect width="26.5149" height="16.1538" fill="white" transform="translate(0.47522 0.53833)"/>
</clipPath>
</defs>
</svg>
