<svg width="10" height="20" viewBox="0 0 10 20" fill="none" xmlns="http://www.w3.org/2000/svg">
<path d="M7.089 8.55758C7.089 7.22647 6.944 6.2954 6.653 5.76434C6.371 5.22638 5.818 4.9574 4.993 4.9574C4.168 4.9574 3.615 5.23327 3.334 5.78503C3.052 6.32988 2.911 7.2782 2.911 8.62999V14.7751C2.911 16.1959 3.067 17.1063 3.377 17.5064C3.697 17.9063 4.168 18.1064 4.789 18.1064C5.41 18.1064 5.852 18.0271 6.114 17.8684C6.386 17.7029 6.614 17.4305 6.798 17.0512C6.992 16.6649 7.089 15.9131 7.089 14.7958V8.55758ZM7.075 0.839935H9.258V19.2858H7.075V18.1064C6.57 18.9685 5.604 19.3995 4.178 19.3995C2.557 19.3926 1.528 18.7064 1.092 17.3408C0.849003 16.589 0.727997 15.5787 0.727997 14.3096V8.85759C0.727997 6.77473 1.077 5.37466 1.776 4.65738C2.484 3.9401 3.479 3.58146 4.76 3.58146C5.255 3.58146 5.711 3.70905 6.129 3.96424C6.556 4.21253 6.871 4.51599 7.075 4.87463V0.839935Z" fill="white"/>
</svg>
