<svg width="9" height="20" viewBox="0 0 9 20" fill="none" xmlns="http://www.w3.org/2000/svg">
<path d="M6.416 5.3093C6.416 4.09543 6.3432 3.34022 6.1976 3.04365C6.0618 2.74019 5.8968 2.48155 5.7027 2.26775C5.5086 2.05394 5.1883 1.94704 4.7419 1.94704C4.2955 1.94704 3.9655 1.96773 3.752 2.00911C3.2279 2.11256 2.8446 2.41258 2.6019 2.90916C2.3593 3.39885 2.238 4.20578 2.238 5.32998V11.4958C2.238 12.8131 2.3836 13.7442 2.6747 14.2891C2.9756 14.827 3.5385 15.096 4.3634 15.096C5.1883 15.096 5.7367 14.827 6.0084 14.2891C6.2801 13.7511 6.416 12.8028 6.416 11.4441V5.3093ZM2.238 1.95739C2.7524 1.08838 3.718 0.65387 5.1349 0.65387C6.1249 0.65387 6.8673 0.888365 7.3622 1.35736C7.8669 1.81945 8.1969 2.41948 8.3521 3.15745C8.5074 3.88852 8.5851 4.77133 8.5851 5.80585V11.3717C8.5851 11.3924 8.5851 11.4165 8.5851 11.4441C8.5851 13.3959 8.226 14.7236 7.5078 15.427C6.7896 16.1237 5.8094 16.4719 4.5672 16.4719C4.0723 16.4719 3.6064 16.3478 3.1697 16.0995C2.7427 15.8444 2.4321 15.534 2.238 15.1685V19.0273H0.0690002V0.767668H2.238V1.95739Z" fill="white"/>
</svg>
