<svg width="13" height="20" viewBox="0 0 13 20" fill="none" xmlns="http://www.w3.org/2000/svg">
<path d="M4.0377 3.9539L4.0523 4.37806C4.0523 5.12292 4.5957 6.44713 5.6827 8.35067C6.43 7.68856 7.0026 7.04027 7.4005 6.40575C7.8081 5.76434 8.0119 5.05051 8.0119 4.26425C8.0119 3.47801 7.8906 2.91936 7.6479 2.5883C7.4053 2.25035 6.8327 2.08138 5.9302 2.08138C4.7559 2.08138 4.1348 2.56072 4.0668 3.51939C4.0571 3.67112 4.0474 3.77112 4.0377 3.81941C4.0377 3.86078 4.0377 3.90561 4.0377 3.9539ZM10.2974 15.5097C11.6755 17.565 12.5101 18.8236 12.8013 19.2858H10.9962C10.7438 18.8582 10.2295 18.0788 9.4531 16.9477C8.9678 17.7271 8.468 18.2857 7.9537 18.6237C7.4393 18.9616 6.9249 19.1892 6.4106 19.3064C5.9059 19.4306 5.3236 19.4926 4.6637 19.4926C3.3438 19.4926 2.2762 19.1685 1.461 18.5202C0.645799 17.8719 0.238201 16.9822 0.238201 15.8511C0.238201 14.72 0.398301 13.882 0.718601 13.3372C1.0486 12.7923 1.3591 12.3129 1.6503 11.8991C1.9414 11.4853 2.844 10.6715 4.358 9.45766C2.7372 6.87819 1.9269 5.1781 1.9269 4.35737C1.9269 2.01931 3.3147 0.850281 6.0903 0.850281C7.711 0.850281 8.7737 1.15374 9.2784 1.76067C9.7927 2.3676 10.0499 3.21593 10.0499 4.30564C10.0499 5.39535 9.7103 6.34713 9.0309 7.16096C8.3613 7.96788 7.5169 8.81964 6.4979 9.71624C7.187 10.8474 8.1138 12.2681 9.2784 13.9786C10.0645 12.8061 10.9282 11.8267 11.8696 11.0405L12.8741 12.1475C12.0006 12.9199 11.1417 14.0406 10.2974 15.5097ZM8.3758 15.3959C6.9589 13.3682 5.9156 11.8474 5.246 10.8335C4.4308 11.606 3.7611 12.3888 3.237 13.182C2.713 13.9751 2.4461 14.8821 2.4364 15.9028C2.4364 17.434 3.2662 18.1995 4.9257 18.1995C5.838 18.1995 6.6047 17.8202 7.2258 17.0615C7.5363 16.6684 7.9197 16.1131 8.3758 15.3959Z" fill="white"/>
</svg>
